<svg width="31" height="31" viewBox="0 0 31 31" fill="none" xmlns="http://www.w3.org/2000/svg">
<g clip-path="url(#clip0_1_31)">
<path fill-rule="evenodd" clip-rule="evenodd" d="M0.783386 0.187485H6.17645L7.6259 4.68748H30.7834L21.9477 21.1875H11.6543L9.0849 24.7328C9.11805 24.8 9.1493 24.8682 9.17858 24.9375H21.3772C21.9364 23.613 23.2134 22.6875 24.6993 22.6875C26.7006 22.6875 28.323 24.3665 28.323 26.4375C28.323 28.5085 26.7006 30.1875 24.6993 30.1875C23.2134 30.1875 21.9364 29.262 21.3772 27.9375H9.17858C8.61941 29.262 7.34238 30.1875 5.85647 30.1875C3.8552 30.1875 2.23284 28.5085 2.23284 26.4375C2.23284 24.3665 3.8552 22.6875 5.85647 22.6875C6.19803 22.6875 6.52855 22.7364 6.84186 22.8278L9.31432 19.4163L4.08704 3.18748H0.783386V0.187485ZM11.9743 18.1875H20.24L25.8625 7.68748H8.5922L11.9743 18.1875ZM24.6993 25.6875C24.2991 25.6875 23.9746 26.0233 23.9746 26.4375C23.9746 26.8517 24.2991 27.1875 24.6993 27.1875C25.0995 27.1875 25.4241 26.8517 25.4241 26.4375C25.4241 26.0233 25.0995 25.6875 24.6993 25.6875ZM5.13174 26.4375C5.13174 26.0233 5.45622 25.6875 5.85647 25.6875C6.25672 25.6875 6.58119 26.0233 6.58119 26.4375C6.58119 26.8517 6.25672 27.1875 5.85647 27.1875C5.45622 27.1875 5.13174 26.8517 5.13174 26.4375Z" fill="black"/>
</g>
<defs>
<clipPath id="clip0_1_31">
<rect width="30" height="30" fill="white" transform="translate(0.783386 0.187485)"/>
</clipPath>
</defs>
</svg>
